<?xml version="1.0" encoding="UTF-8"?>
<svg width="30px" height="30px" viewBox="0 0 30 30" version="1.1" xmlns="http://www.w3.org/2000/svg" xmlns:xlink="http://www.w3.org/1999/xlink">
    <!-- Generator: Sketch 44.1 (41455) - http://www.bohemiancoding.com/sketch -->
    <title>icn/24-hour-access</title>
    <desc>Created with Sketch.</desc>
    <defs></defs>
    <g id="Symbols" stroke="none" stroke-width="1" fill="none" fill-rule="evenodd">
        <g id="icn/24-hour-access" fill-rule="nonzero" fill="#323538">
            <path d="M18.1690345,27.6201097 L6.8006134,24.6637874 C6.53856546,24.5956426 6.35526316,24.3556549 6.35526316,24.0807147 L6.35526316,2.96296296 C6.35526316,2.5700523 6.7196369,2.28250624 7.09412344,2.37989029 L18.4625445,5.33621265 C18.7245924,5.4043574 18.9078947,5.64434506 18.9078947,5.91928532 L18.9078947,27.037037 C18.9078947,27.4299477 18.543521,27.7174938 18.1690345,27.6201097 Z M17.7236842,6.38654605 L7.53947368,3.73817394 L7.53947368,23.6134539 L17.7236842,26.2618261 L17.7236842,6.38654605 Z M7.53947368,3.56481481 L7.53947368,22.7380952 C7.53947368,23.0704888 7.27437913,23.3399471 6.94736842,23.3399471 C6.62035771,23.3399471 6.35526316,23.0704888 6.35526316,22.7380952 L6.35526316,2.96296296 C6.35526316,2.63056936 6.62035771,2.36111111 6.94736842,2.36111111 L23.0526316,2.36111111 C23.3796423,2.36111111 23.6447368,2.63056936 23.6447368,2.96296296 L23.6447368,25.5631141 C23.6447368,25.8955077 23.3796423,26.164966 23.0526316,26.164966 C22.7256209,26.164966 22.4605263,25.8955077 22.4605263,25.5631141 L22.4605263,3.56481481 L7.53947368,3.56481481 Z M16.4210526,16.2282691 C15.8978355,16.2282691 15.4736842,15.7883372 15.4736842,15.2456538 C15.4736842,14.7029704 15.8978355,14.2630385 16.4210526,14.2630385 C16.9442698,14.2630385 17.3684211,14.7029704 17.3684211,15.2456538 C17.3684211,15.7883372 16.9442698,16.2282691 16.4210526,16.2282691 Z" id="Combined-Shape"></path>
        </g>
    </g>
</svg>