<svg xmlns="http://www.w3.org/2000/svg" width="30" height="30" viewBox="0 0 30 30">
    <path fill="#C8242C" fill-rule="nonzero" d="M24.33 14.76c0 3.265-1.743 6.098-4.625 8.49a21.374 21.374 0 0 1-4.465 2.832 5.9 5.9 0 0 1-.109.049.436.436 0 0 1-.345 0 13.203 13.203 0 0 1-.403-.188 21.374 21.374 0 0 1-4.171-2.694c-2.883-2.391-4.625-5.224-4.625-8.488V6.292c0-.084.024-.166.07-.237.07-.109.211-.27.438-.463.356-.303.83-.6 1.44-.875C9.231 3.953 11.661 3.5 14.958 3.5c3.298 0 5.728.453 7.424 1.217.61.274 1.084.572 1.44.875.227.194.367.354.438.463.046.07.07.153.07.237v8.469zm-9.179 10.4a20.513 20.513 0 0 0 3.997-2.581c2.702-2.242 4.31-4.857 4.31-7.818V6.445a2.523 2.523 0 0 0-.202-.189c-.292-.25-.697-.503-1.232-.744-1.575-.71-3.885-1.14-7.066-1.14-3.18 0-5.49.43-7.065 1.14-.536.24-.94.495-1.233.744-.09.077-.156.141-.202.19v8.315c0 2.961 1.609 5.576 4.31 7.817a20.513 20.513 0 0 0 4.19 2.674l.193-.092zm-5.107-8.824l2.986-2.882c.108-.097.21-.201.306-.31.098-.11.186-.228.265-.351.077-.123.138-.254.183-.39.047-.144.07-.294.068-.445a1.131 1.131 0 0 0-.1-.48 1.059 1.059 0 0 0-.274-.363c-.12-.102-.26-.18-.411-.231a1.518 1.518 0 0 0-.498-.08 1.395 1.395 0 0 0-.913.297c-.249.21-.41.5-.457.817l-1.091-.093c.043-.288.144-.566.296-.817.143-.23.33-.428.553-.586.22-.16.47-.277.735-.346.298-.078.605-.116.914-.111.309-.003.617.04.913.128.272.079.526.207.749.378.215.167.388.38.507.621.13.279.192.583.182.888a1.99 1.99 0 0 1-.11.67 2.818 2.818 0 0 1-.323.578 3.66 3.66 0 0 1-.411.52c-.156.162-.317.322-.485.479l-2.452 2.3h3.745v.857h-4.877v-1.048zm8.35-.118h-2.989v-1.029l2.78-4.761h1.153v4.907h.982v.878h-.982v1.635h-.944v-1.63zm0-4.593l-2.135 3.71h2.135v-3.71zm3.724-1.66V7.46a2.313 2.313 0 0 0-.171-.149c-.274-.217-.65-.439-1.143-.65-1.011-.431-2.36-.75-4.096-.9a.436.436 0 1 1 .075-.87c1.824.16 3.263.499 4.364.969.978.418 1.529.855 1.76 1.178a.436.436 0 0 1 .083.254v2.671a.436.436 0 1 1-.872 0z"/>
</svg>
