<svg xmlns="http://www.w3.org/2000/svg" width="30" height="30" viewBox="0 0 30 30">
    <path fill="#C8242C" fill-rule="nonzero" d="M4.65 14.397a.814.814 0 0 0-.279.614v9.997h21.341v-9.99a.82.82 0 0 0-.304-.621L15.029 5.418 4.65 14.397zm5.673 3.404c-1.62.51-2.832 1.954-2.903 3.705a.436.436 0 1 0 .87.035c.071-1.752 1.62-3.127 3.47-3.064 1.881-.063 3.43 1.312 3.5 3.064a.436.436 0 0 0 .87-.035c-.07-1.745-1.275-3.187-2.902-3.7.41-.403.678-.951.724-1.562v-1.218c-.002-1.212-.966-2.2-2.165-2.213a2.205 2.205 0 0 0-2.19 2.212v1.182c.046.63.315 1.187.726 1.594zm16.26 7.23a.85.85 0 0 1-.845.848H4.345a.843.843 0 0 1-.845-.849V15.011c0-.489.212-.953.58-1.273l10.395-8.992a.842.842 0 0 1 1.107-.001l10.387 8.986c.381.313.606.778.614 1.28v10.02zm-13.501-8.82a1.536 1.536 0 0 1-1.301 1.39 1.543 1.543 0 0 1-1.314-1.426l.002-1.149c.002-.741.59-1.34 1.315-1.342.713.008 1.296.605 1.298 1.344v1.184zm6.533.433a1.531 1.531 0 0 1-1.318 1.392A1.54 1.54 0 0 1 17 16.613l.002-1.153c.002-.74.588-1.338 1.307-1.34.718.002 1.304.6 1.306 1.341v1.183zm-1.371 2.264h.093c1.156-.115 2.06-1.058 2.148-2.232V15.46c-.002-1.219-.973-2.208-2.176-2.212-1.205.004-2.175.993-2.178 2.21v1.186c.085 1.193.97 2.132 2.113 2.264zm-2.638 1.37a3.478 3.478 0 0 1 2.806-1.365c1.81-.064 3.312 1.308 3.38 3.063a.436.436 0 1 0 .871-.034c-.087-2.237-1.995-3.98-4.262-3.9a4.338 4.338 0 0 0-3.489 1.71.436.436 0 0 0 .694.527z"/>
</svg>
