<svg xmlns="http://www.w3.org/2000/svg" width="30" height="30" viewBox="0 0 30 30">
    <path fill="#C8242C" fill-rule="nonzero" d="M21.794 9.425l-1.553 15.599a2.005 2.005 0 0 1-1.993 1.81h-7.143a2.005 2.005 0 0 1-1.993-1.81L7.56 9.426h-.018a1.38 1.38 0 0 1-1.381-1.38V7.59c0-.762.619-1.38 1.38-1.38h.218l.001-.001 1.205-1.593A1.762 1.762 0 0 1 10.306 4h8.74a1.774 1.774 0 0 1 1.36.638l1.188 1.57.001.002h.213a1.38 1.38 0 0 1 1.38 1.38v.456a1.38 1.38 0 0 1-1.38 1.38h-.014zm-13.317 0l1.544 15.51c.055.558.524.984 1.085.985h7.141c.561 0 1.03-.427 1.085-.986l1.544-15.509H8.477zM20.451 6.21l-.755-1a.85.85 0 0 0-.649-.297h-8.742a.84.84 0 0 0-.63.276L8.903 6.21h11.548zM7.073 7.59v.456c0 .258.209.466.468.466h14.267c.258 0 .468-.21.468-.466V7.59a.466.466 0 0 0-.468-.466H7.54a.467.467 0 0 0-.468.466zm7.604 12.06a3.037 3.037 0 1 1 0-6.074 3.037 3.037 0 0 1 0 6.074zm0-.913a2.124 2.124 0 1 0 0-4.247 2.124 2.124 0 0 0 0 4.247z"/>
</svg>
