<svg xmlns="http://www.w3.org/2000/svg" width="30" height="30" viewBox="0 0 30 30">
    <path fill="#C8242C" fill-rule="nonzero" d="M17.715 13.541v-1.416c-.002-.92-.782-1.676-1.752-1.686-.982.002-1.77.76-1.773 1.685l-.001 1.377c.071.918.81 1.664 1.771 1.782.953-.124 1.684-.865 1.755-1.742zm1.55 2.803a5.132 5.132 0 0 1 2.228-1.626 2.83 2.83 0 0 1-1.134-2.062V11.24c.005-1.418 1.189-2.56 2.646-2.563 1.454.004 2.638 1.145 2.643 2.564l-.002 1.45a2.784 2.784 0 0 1-.956 1.885c2.008.555 3.518 2.408 3.601 4.66a.44.44 0 0 1-.88.033c-.085-2.284-1.933-4.06-4.145-3.979a4.175 4.175 0 0 0-3.346 1.65 4.952 4.952 0 0 1 1.32 3.177.44.44 0 1 1-.88.035c-.09-2.28-2.052-4.063-4.423-3.98-2.34-.083-4.302 1.7-4.391 3.98a.44.44 0 0 1-.881-.035c.087-2.21 1.616-4.03 3.649-4.624a2.829 2.829 0 0 1-1.005-1.957v-1.412c.004-1.42 1.193-2.562 2.658-2.566 1.45.016 2.626 1.155 2.63 2.567l-.002 1.452a2.787 2.787 0 0 1-1.003 1.92c.613.18 1.18.47 1.674.848zm5.501-3.688v-1.414c-.002-.926-.787-1.682-1.761-1.685-.977.003-1.762.76-1.764 1.683l-.001 1.382c.07.913.798 1.656 1.748 1.78.962-.11 1.707-.857 1.778-1.746zM7.401 15.422c-1.334-.156-2.366-1.271-2.465-2.68v-1.451C4.94 9.85 6.067 8.68 7.47 8.676c1.4.004 2.529 1.176 2.533 2.616l-.002 1.482c-.1 1.392-1.155 2.512-2.505 2.649H7.4zm1.721-2.68v-1.449c-.002-.961-.745-1.733-1.651-1.736-.909.003-1.651.775-1.654 1.735l-.001 1.419c.067.943.755 1.702 1.64 1.83.895-.115 1.598-.877 1.666-1.799zm-6.036 4.253a.44.44 0 1 1-.707-.526 5.1 5.1 0 0 1 4.13-2.061 4.871 4.871 0 0 1 5.037 4.688.44.44 0 1 1-.881.034 3.995 3.995 0 0 0-4.144-3.841 4.23 4.23 0 0 0-3.435 1.706z"/>
</svg>
