<svg xmlns="http://www.w3.org/2000/svg" width="30" height="30" viewBox="0 0 30 30">
    <path fill="#FFF" fill-rule="nonzero" d="M24.72 4.75A2.091 2.091 0 0 1 26.8 6.8v17.731a2.09 2.09 0 0 1-2.08 2.079H5.279A2.09 2.09 0 0 1 3.2 24.53V6.795A2.09 2.09 0 0 1 5.28 4.75H8.5v-.56a.8.8 0 1 1 1.6 0v.56h9.8v-.52a.8.8 0 1 1 1.6 0v.52h3.22zM5.28 6.31a.48.48 0 0 0-.48.48v3.75h20.4V6.79a.48.48 0 0 0-.48-.48H21.5v1.05a.8.8 0 1 1-1.6 0V6.31h-9.8v1a.8.8 0 1 1-1.6 0v-1H5.28zM4.8 24.53c0 .265.215.48.48.48h19.44a.48.48 0 0 0 .48-.48V12.14H4.8v12.39zm5.3-10.98a.8.8 0 1 1 1.6.03v3.03a1.02 1.02 0 0 1-1.02 1.02H7.35a.8.8 0 1 1 0-1.6h2.75v-2.48zm0 6a.8.8 0 1 1 1.6.03v3.03a1.02 1.02 0 0 1-1.02 1.02H7.35a.8.8 0 1 1 0-1.6h2.75v-2.48zm7.391-6.561c.158.16.241.38.229.591v3.03a1.02 1.02 0 0 1-1.02 1.02h-3.35a.8.8 0 1 1 0-1.6h2.75v-2.48a.8.8 0 0 1 .795-.8.8.8 0 0 1 .596.239zm0 6c.158.16.241.38.229.591v3.03a1.02 1.02 0 0 1-1.02 1.02h-3.35a.8.8 0 1 1 0-1.6h2.75v-2.48a.8.8 0 0 1 .795-.8.8.8 0 0 1 .596.239zm6-6c.158.16.241.38.229.591v3.03a1.02 1.02 0 0 1-1.02 1.02h-3.35a.8.8 0 1 1 0-1.6h2.75v-2.48a.8.8 0 0 1 .795-.8.8.8 0 0 1 .596.239zm0 6c.158.16.241.38.229.591v3.03a1.02 1.02 0 0 1-1.02 1.02h-3.35a.8.8 0 1 1 0-1.6h2.75v-2.48a.8.8 0 0 1 .795-.8.8.8 0 0 1 .596.239z"/>
</svg>
