<svg xmlns="http://www.w3.org/2000/svg" width="30" height="30" viewBox="0 0 30 30">
    <path fill="#323538" fill-rule="nonzero" d="M3.762 14.193a.787.787 0 0 0-.233.572V26.47h22.942V14.777a.791.791 0 0 0-.26-.583L14.986 3.657 3.762 14.193zm23.906 13.413c-.228.25-.546.394-.884.394H3.216c-.338 0-.656-.145-.884-.394A1.283 1.283 0 0 1 2 26.741V14.764c0-.641.258-1.255.715-1.685L14.165 2.33a1.186 1.186 0 0 1 1.64-.002l11.438 10.737c.473.422.746 1.038.757 1.7V26.74c0 .32-.117.63-.332.865zM16.45 14.766V13.17c-.002-.91-.662-1.624-1.438-1.634-.792.003-1.46.72-1.462 1.632l-.002 1.54c.063.901.68 1.615 1.458 1.75.773-.14 1.382-.848 1.444-1.69zm-3.206 2.507c-.706-.591-1.174-1.488-1.244-2.514v-1.594c.005-1.733 1.334-3.16 3.019-3.165 1.663.02 2.977 1.442 2.981 3.167l-.002 1.653c-.07.99-.535 1.87-1.237 2.454 2.38.85 4.141 3.582 4.239 6.863.013.461-.312.847-.728.863-.415.015-.763-.347-.776-.808-.095-3.188-2.118-5.627-4.465-5.518h-.062c-2.347-.11-4.37 2.33-4.465 5.518-.013.461-.361.823-.776.808-.416-.016-.741-.402-.728-.863.098-3.283 1.861-6.016 4.244-6.864z"/>
</svg>
