<svg xmlns="http://www.w3.org/2000/svg" width="30" height="30" viewBox="0 0 30 30">
    <path fill="#FFF" fill-rule="nonzero" stroke="#FFF" stroke-width=".5" d="M27.9 27.14c0-.17-1.1-4.24-3.09-5.4-1.36-.79-4.73-1.48-6.6-1.81a9.92 9.92 0 0 0 1.71-2.07 9.62 9.62 0 0 0 1.13-4.12l.07-.55c.35-2.79.48-5.89-1.22-7.83A6.18 6.18 0 0 0 15 3.55a6.19 6.19 0 0 0-4.85 1.8c-1.71 1.94-1.57 5-1.22 7.83l.07.55c0 .29.07.59.11.9a2.13 2.13 0 0 1-.32-.63c-.4-3.14-.57-6.61 1.2-8.62 1.06-1.2 2.71-1.78 5-1.79 2.29-.01 4 .58 5 1.77A7.31 7.31 0 0 1 21.52 10a25 25 0 0 1-.21 3.52.56.56 0 0 0 .31.56.55.55 0 0 0 .23.06c1.288.009 2.306-.926 2.4-2.14a2.35 2.35 0 0 0-1.63-2.38 8 8 0 0 0-1.73-5C19.62 3.18 17.66 2.46 15 2.45c-2.62 0-4.59.73-5.85 2.16a8 8 0 0 0-1.69 5 2.33 2.33 0 0 0 .24 4.56 3.45 3.45 0 0 0 1.76 2.22c.15.522.372 1.02.66 1.48a10 10 0 0 0 1.7 2.07c-1.87.33-5.27 1-6.64 1.82-2 1.16-3 5.23-3.09 5.4a.55.55 0 0 0 .4.67h.14a.55.55 0 0 0 .53-.42c.27-1.05 1.25-3.95 2.58-4.72 1.57-.91 6.55-1.74 7.39-1.88a4.35 4.35 0 0 0 1.33.4c.308.04.675.044 1.1.01.607-.13 1.05-.264 1.33-.4.93.15 5.81 1 7.36 1.87 1.32.77 2.31 3.67 2.58 4.72.063.24.28.41.53.41h.14a.55.55 0 0 0 .4-.68zm-5.27-16.31a1.23 1.23 0 0 1-.14 2.1c.07-.69.13-1.39.14-2.1zM7.22 12.77a1.21 1.21 0 0 1 .23-2c0 .73.06 1.47.13 2.21a1.24 1.24 0 0 1-.36-.21zm3.84 4.49a4.08 4.08 0 0 1-.24-.48l3.78.68h.1a.55.55 0 0 0 .1-1.09l-4.22-.76-.18-.07a18.46 18.46 0 0 1-.3-1.95L10 13c-.32-2.54-.46-5.36 1-7a5.1 5.1 0 0 1 4-1.43A5.1 5.1 0 0 1 19 6c1.42 1.61 1.28 4.42 1 7v.6a8.81 8.81 0 0 1-1 3.66c-1.26 2-2.52 2.89-4 2.9-1.48.01-2.69-.93-3.95-2.9h.01z"/>
</svg>
