<svg xmlns="http://www.w3.org/2000/svg" width="30" height="30" viewBox="0 0 30 30">
    <path fill="#323538" fill-rule="nonzero" d="M17.63 10.311l-1.598-8.037a.65.65 0 0 1 .52-.762.659.659 0 0 1 .773.512l3.833 19.265c2.92.273 4.773 1.48 5.681 3.334a6.013 6.013 0 0 1 .559 3.354c-.047.3-.335.523-.675.523H13.624a.719.719 0 0 1-.519-.213c-.752.146-1.514.217-2.265.211a10.533 10.533 0 0 1-4.156-.773c-1.165-.504-1.952-1.655-2.041-2.953L3.56 12.671a.674.674 0 0 1 .016-.215.54.54 0 0 1-.016-.183c.017-.217.073-.577.187-1.033a8.49 8.49 0 0 1 .898-2.23c1.217-2.082 3.243-3.356 6.182-3.356 2.938 0 4.964 1.266 6.181 3.336.252.427.458.871.623 1.321zm.463 2.32l-.807 9.006a10.748 10.748 0 0 1 2.52-.39l.1.498c.07.352.416.58.773.512a.655.655 0 0 0 .504-.447v.027c0 .334-.305.605-.681.605-.111 0-.22.002-.329.004a14.361 14.361 0 0 0-.328-.004c-.376 0-.681-.27-.681-.605 0-.277.208-.51.493-.583a.758.758 0 0 1 .147-.022l-1.711-8.6zM12.91 26.944a5.93 5.93 0 0 1 .593-2.32c.502-1.025 1.294-1.853 2.396-2.434a.674.674 0 0 1-.014-.21l.783-8.735-11.684.042 1.017 11.38c.056.815.536 1.517 1.21 1.808 1.151.465 2.373.691 3.62.668.698.005 1.394-.062 2.08-.2zM4.984 11.93l11.684-.043A7.304 7.304 0 0 0 15.8 9.55c-.997-1.693-2.583-2.685-4.973-2.685-2.389 0-3.975.998-4.972 2.703a7.38 7.38 0 0 0-.87 2.362zm9.77 13.177a4.912 4.912 0 0 0-.486 2.181h11.81a4.922 4.922 0 0 0-.488-2.18c-.79-1.61-2.469-2.595-5.417-2.662-2.951.067-4.631 1.052-5.419 2.661zm-3.49.117a.597.597 0 0 1 .601.593.597.597 0 0 1-.588.605 11.5 11.5 0 0 1-2.628-.27c-.811-.193-1.418-.685-1.499-1.334l-.469-2.891a.596.596 0 0 1 1.175-.193l.473 2.913c.01.083.216.25.586.338.748.167 1.546.248 2.348.24z"/>
</svg>
