<svg xmlns="http://www.w3.org/2000/svg" width="30" height="30" viewBox="0 0 30 30">
    <path fill="#323538" fill-rule="nonzero" d="M24.13 14.949a11.667 11.667 0 0 1-1.788 2.72C20.513 19.744 18.078 21 15 21c-3.078 0-5.513-1.256-7.342-3.33a11.667 11.667 0 0 1-1.787-2.721c-.2.187-.391.375-.576.563a17.92 17.92 0 0 0-.829.9.84.84 0 0 1-1.155.13.78.78 0 0 1-.133-1.12 19.525 19.525 0 0 1 .928-1.012A22.918 22.918 0 0 1 6.59 12.23C9.25 10.217 12.086 9 15 9c2.914 0 5.75 1.217 8.41 3.229a22.918 22.918 0 0 1 3.163 2.905c.12.134.203.232.25.288a.78.78 0 0 1-.134 1.12.84.84 0 0 1-1.155-.13 17.92 17.92 0 0 0-.829-.9 21.476 21.476 0 0 0-.576-.563zm-1.266-1.1a20.585 20.585 0 0 0-.465-.364C20 11.672 17.489 10.594 15 10.594c-2.488 0-5.001 1.078-7.399 2.891-.158.12-.313.241-.465.364a8.65 8.65 0 0 0 .38.819c.351.664.797 1.33 1.342 1.949 1.543 1.75 3.557 2.79 6.142 2.79 2.585 0 4.599-1.04 6.142-2.79a10.087 10.087 0 0 0 1.647-2.584c.036-.083.06-.145.075-.184zM15.43 17.57c-1.67 0-3-1.354-3-3a2.999 2.999 0 1 1 6 0c0 1.646-1.33 3-3 3zm0-1.685c.669 0 1.235-.577 1.235-1.315 0-.737-.566-1.314-1.235-1.314-.67 0-1.236.577-1.236 1.314 0 .738.567 1.315 1.236 1.315z"/>
</svg>
