<?xml version="1.0" encoding="utf-8"?>
<!-- Generator: Adobe Illustrator 19.1.0, SVG Export Plug-In . SVG Version: 6.00 Build 0)  -->
<svg version="1.1" id="Layer_1" xmlns="http://www.w3.org/2000/svg" xmlns:xlink="http://www.w3.org/1999/xlink" x="0px" y="0px"
	 viewBox="-290 382 30 30" style="enable-background:new -290 382 30 30;" xml:space="preserve">
<style type="text/css">
	.st0{fill:#FFFFFF;}
</style>
<title>icn/footer-email</title>
<desc>Created with Sketch.</desc>
<g id="Symbols">
	<g id="icn_x2F_footer-email">
		<path id="Shape" class="st0" d="M-288,388v0.5v17.9v0.5h0.5h25h0.5v-0.5v-17.9V388h-0.5h-25H-288z M-287,389.1h23.9v1.3
			c-0.2,0.2-9.3,8.3-10.2,9l0,0c-0.7,0.6-1.4,0.7-1.7,0.7c-0.4,0-1.1-0.1-1.7-0.7c-0.2-0.2-1.6-1.4-2.6-2.3c-3-2.6-7.5-6.6-7.6-6.8
			V389.1z M-287,391.8c0.9,0.8,4.1,3.6,6.8,6l-6.8,5.5V391.8z M-263,391.8v11.5l-6.8-5.5C-267.1,395.4-263.9,392.6-263,391.8z
			 M-279.3,398.5c0.6,0.6,1.8,1.6,1.9,1.7l0,0c0.9,0.8,1.8,1,2.4,1c0.6,0,1.5-0.2,2.4-1c0.1-0.1,1.3-1.1,1.9-1.7l7.6,6.1v1.3H-287
			v-1.3L-279.3,398.5z"/>
	</g>
</g>
</svg>
