<svg xmlns="http://www.w3.org/2000/svg" width="344" height="55" viewBox="0 0 344 55">
    <g fill="none" fill-rule="nonzero">
        <path fill="#FFF" d="M338.084 28.147a5.9 5.9 0 0 1 2.837.748 5.29 5.29 0 0 1 2.152 2.136 5.816 5.816 0 0 1 0 5.772 5.36 5.36 0 0 1-2.132 2.14 5.785 5.785 0 0 1-5.738 0 5.407 5.407 0 0 1-2.139-2.14 5.786 5.786 0 0 1 0-5.772 5.326 5.326 0 0 1 2.159-2.136 5.9 5.9 0 0 1 2.86-.748zm0 .956a4.9 4.9 0 0 0-2.366.624 4.469 4.469 0 0 0-1.8 1.784 4.812 4.812 0 0 0 0 4.81 4.536 4.536 0 0 0 1.787 1.783 4.786 4.786 0 0 0 4.781 0 4.51 4.51 0 0 0 1.78-1.784 4.845 4.845 0 0 0 0-4.809 4.435 4.435 0 0 0-1.8-1.784 4.904 4.904 0 0 0-2.382-.62v-.004zm1.85 5.758l.94.275a2.627 2.627 0 0 1-.973 1.526 3.157 3.157 0 0 1-3.992-.302 3.358 3.358 0 0 1-.844-2.421 3.797 3.797 0 0 1 .385-1.757 2.56 2.56 0 0 1 1.088-1.127 3.38 3.38 0 0 1 1.616-.38 2.81 2.81 0 0 1 1.69.487c.447.323.77.79.917 1.322l-.907.22a1.87 1.87 0 0 0-.67-.868 1.838 1.838 0 0 0-1.05-.302 1.869 1.869 0 0 0-1.449.628 2.59 2.59 0 0 0-.569 1.8c-.046.638.146 1.27.539 1.775.353.397.864.617 1.395.6.436.007.862-.133 1.208-.4.343-.267.582-.647.676-1.072v-.004z"/>
        <path fill="#DA2128" d="M82.814 0c-9.011-.007-17.139 5.428-20.592 13.77a22.361 22.361 0 0 0 4.818 24.336 22.24 22.24 0 0 0 24.279 4.847c8.326-3.455 13.755-11.596 13.755-20.628C105.074 10.002 95.11.01 82.814 0zm0 35.582c-7.666 0-13.228-5.909-13.228-13.257S75.148 9.068 82.814 9.068c7.667 0 13.225 5.91 13.225 13.257 0 7.348-5.562 13.254-13.225 13.254v.003z"/>
        <path fill="#FFF" d="M113.105 30.67c3.31 3.4 8.767 6.036 13.596 6.036 5.354 0 8.587-2.891 8.587-5.185 0-2.72-2.236-4.165-5.635-4.759l-5.278-.935c-12.167-2.123-15.567-5.866-15.567-11.738 0-6.97 6.174-13.415 16.996-13.415 5.994 0 11.27 1.7 17.177 5.701l-5.26 6.184c-4.562-3.655-8.587-4.587-11.629-4.587-4.016 0-7.96 1.868-7.96 5.184 0 2.465 2.057 3.74 5.634 4.333l9.393 1.7c7.697 1.359 11.452 4.843 11.452 10.964 0 6.036-5.19 13.854-18.338 13.854-7.335 0-13.596-2.465-19.502-7.224l6.334-6.114zM170.682.654c-11.927 0-21.602 9.678-21.624 21.631v32.53h8.784V39.762a21.585 21.585 0 0 0 25.464.16c7.623-5.492 10.839-15.286 7.96-24.242C188.386 6.723 180.07.653 170.682.654zm0 34.543c-7.443 0-12.84-5.738-12.84-12.868s5.397-12.868 12.84-12.868c7.442 0 12.84 5.738 12.84 12.868s-5.402 12.86-12.84 12.86v.008zM239.391 22.228c-.045-10.026-6.947-18.712-16.687-21.001-9.74-2.29-19.775 2.417-24.263 11.378-4.487 8.96-2.256 19.837 5.396 26.296a21.587 21.587 0 0 0 26.774.86v4.236h8.784V22.228h-.004zm-21.62 12.965c-7.442 0-12.84-5.738-12.84-12.868s5.398-12.868 12.84-12.868 12.84 5.738 12.84 12.868-5.405 12.865-12.84 12.865v.003zM0 6.942v37.055h8.784V2.133zM328.353 25.367c1.577-11.114-5.581-21.593-16.49-24.14-10.91-2.546-21.951 3.684-25.437 14.352-3.485 10.669 1.743 22.237 12.042 26.65 10.3 4.412 22.256.205 27.542-9.692l-7.656-4.192c-2.075 4.078-6.251 6.845-11.414 6.845-7.442 0-12.84-5.738-12.84-12.868s5.394-12.865 12.846-12.865c5.883 0 10.478 3.592 12.147 8.62H306.21l-5.689 7.293h27.815l.017-.003zM56.161 20.97C56.161 9.75 47.085.654 35.889.654 24.693.654 15.617 9.75 15.617 20.97v23.027h8.784V20.97c0-6.372 4.829-11.513 11.488-11.513 6.66 0 11.488 5.135 11.488 11.513v23.027h8.784V20.97zM275.367 29.556c-2.238 3.404-6.07 5.637-10.708 5.637-7.442 0-12.84-5.738-12.84-12.868s5.398-12.868 12.84-12.868c4.635 0 8.47 2.234 10.708 5.638l7.653-4.192c-5.091-8.228-15.01-12.073-24.302-9.42-9.29 2.654-15.698 11.16-15.698 20.842 0 9.682 6.408 18.189 15.698 20.842 9.291 2.653 19.21-1.192 24.302-9.42l-7.653-4.191z"/>
    </g>
</svg>
