<svg xmlns="http://www.w3.org/2000/svg" width="20" height="20" viewBox="0 0 20 20">
    <path fill="#FFF" fill-rule="nonzero" d="M10 20C4.477 20 0 15.523 0 10S4.477 0 10 0s10 4.477 10 10-4.477 10-10 10zm0-1.333a8.667 8.667 0 1 0 0-17.334 8.667 8.667 0 0 0 0 17.334zM6.126 7.99h1.726v5.342H6.126V7.991zm.865-2.658c.404-.003.771.228.93.588a.938.938 0 0 1-.208 1.052 1.027 1.027 0 0 1-1.09.217A.965.965 0 0 1 6 6.303c0-.532.448-.964 1-.964l-.01-.006zm2.342 2.792h1.64v.718h.023a1.821 1.821 0 0 1 1.618-.842c1.731 0 2.053 1.078 2.053 2.482v2.85h-1.719v-2.531c0-.591 0-1.383-.889-1.383s-1.026.659-1.026 1.338v2.576h-1.7V8.125z"/>
</svg>
