<?xml version="1.0" encoding="UTF-8"?>
<svg width="30px" height="30px" viewBox="0 0 30 30" version="1.1" xmlns="http://www.w3.org/2000/svg" xmlns:xlink="http://www.w3.org/1999/xlink">
    <!-- Generator: Sketch 44.1 (41455) - http://www.bohemiancoding.com/sketch -->
    <title>icn/loading-bay</title>
    <desc>Created with Sketch.</desc>
    <defs></defs>
    <g id="Symbols" stroke="none" stroke-width="1" fill="none" fill-rule="evenodd">
        <g id="icn/loading-bay" fill-rule="nonzero" fill="#323538">
            <path d="M20.9655686,19.8488405 C21.9420697,20.6787362 22.5616273,21.9159516 22.5616273,23.2978723 C22.5616273,25.7966258 20.5359875,27.8222656 18.037234,27.8222656 C15.6649113,27.8222656 13.7190365,25.9964245 13.5281972,23.6733295 L11.0893404,23.6733295 C11.1305018,23.8875945 11.1520529,24.1088337 11.1520529,24.3351064 C11.1520529,26.2610113 9.59079849,27.8222656 7.66489362,27.8222656 C5.73898875,27.8222656 4.17773438,26.2610113 4.17773438,24.3351064 C4.17773438,24.0948177 4.20203797,23.8602055 4.2483211,23.6335937 L4.18189608,23.6232498 C4.17843999,23.5694197 4.17843999,23.5694197 4.17846146,23.565337 C4.17823373,23.5370438 4.17823373,23.5370438 4.17812096,23.4782035 C4.17791181,23.3008799 4.17791181,23.3008799 4.1777961,22.9670632 C4.17767265,22.4697329 4.17773437,21.6583353 4.17798123,20.532818 C4.17798354,20.5222939 4.17824195,20.5118297 4.17875056,20.5014312 L4.17878961,16.4165111 C4.1698539,15.8055466 4.4083782,15.2168937 4.84036388,14.782582 C4.95612812,14.6661944 5.08318914,14.5634977 5.21899932,14.4755379 C5.2163363,14.451928 5.21496842,14.4279259 5.21496842,14.4036042 L5.21496842,7.48005319 C5.21496842,7.12948182 5.49916267,6.84528757 5.84973404,6.84528757 L13.4212757,6.84529403 C14.0214984,6.84800309 14.565333,7.20624357 14.7694052,7.75722666 L17.8390823,16.034347 L18.7133993,16.034347 C19.978169,16.034347 21.0057763,17.0527283 21.0057763,18.3118418 L21.0057763,19.6260251 C21.0057763,19.7044291 20.9915615,19.7795131 20.9655686,19.8488405 Z M19.736245,19.103313 L19.736245,18.3118418 C19.736245,17.7564468 19.2795765,17.3038783 18.7133993,17.3038783 L14.9774382,17.303841 C14.5400002,17.3085806 14.1195224,17.1344788 13.8161813,16.8234187 L12.762141,15.7499898 C12.5378153,15.5145965 12.2258371,15.3791904 11.9051811,15.3754571 L6.47103264,15.3754571 C6.1959607,15.3754285 5.93272027,15.4845722 5.74046513,15.6778626 C5.54932617,15.8700307 5.44425647,16.1293317 5.44825298,16.4072283 L5.44824967,21.6429967 C6.05081625,21.1462812 6.8230151,20.8479471 7.66489362,20.8479471 C8.87652335,20.8479471 9.94382627,21.4658836 10.568844,22.4037982 L13.6011656,22.4037982 C14.016184,20.333267 15.844555,18.7734791 18.037234,18.7734791 C18.6381277,18.7734791 19.2116615,18.8906205 19.736245,19.103313 Z M6.48449967,14.105926 L11.9124877,14.1059679 C12.5822,14.1136773 13.22044,14.3906889 13.6745585,14.8673159 L14.7235254,15.9354821 C14.7858286,15.9993695 14.8727726,16.0353693 14.9705609,16.034347 L16.4850575,16.034347 L13.579001,8.1984151 C13.5636451,8.15695506 13.5002498,8.11519466 13.4184108,8.11481882 L6.48449967,8.11481882 L6.48449967,14.105926 Z M29.0793925,21.1688622 C29.4248422,21.1091561 29.7532858,21.340797 29.8129919,21.6862466 C29.8726981,22.0316963 29.6410571,22.36014 29.2956075,22.4198461 L25.1051195,23.1433144 C24.349619,23.2354454 23.6426935,22.7637681 23.4158474,22.0258523 L17.6887059,2.99542634 C17.5876785,2.65972745 17.7779173,2.30569082 18.1136162,2.20466338 C18.4493151,2.10363595 18.8033517,2.29387476 18.9043792,2.62957366 L24.6304243,21.6563954 C24.6774427,21.8093356 24.8132773,21.8999676 24.9201734,21.8877246 L29.0793925,21.1688622 Z M7.66489362,26.5527344 C8.88965574,26.5527344 9.88252161,25.5598685 9.88252161,24.3351064 C9.88252161,23.1103443 8.88965574,22.1174784 7.66489362,22.1174784 C6.4401315,22.1174784 5.44726563,23.1103443 5.44726563,24.3351064 C5.44726563,25.5598685 6.4401315,26.5527344 7.66489362,26.5527344 Z M18.037234,26.5527344 C19.8348447,26.5527344 21.2920961,25.095483 21.2920961,23.2978723 C21.2920961,21.5002617 19.8348447,20.0430103 18.037234,20.0430103 C16.2396234,20.0430103 14.782372,21.5002617 14.782372,23.2978723 C14.782372,25.095483 16.2396234,26.5527344 18.037234,26.5527344 Z" id="Combined-Shape"></path>
        </g>
    </g>
</svg>