<svg xmlns="http://www.w3.org/2000/svg" width="30" height="30" viewBox="0 0 30 30">
    <path fill="#C8242C" fill-rule="nonzero" d="M6.379 21.535h-.421c-1.548-.003-2.797-1.292-2.8-2.877V9.893c0-.206.15-.38.354-.412a7.503 7.503 0 0 1 2.95.205v-.81C6.465 7.294 7.711 6.006 9.258 6h12.484c1.548.003 2.797 1.292 2.8 2.877v.8a7.517 7.517 0 0 1 2.918-.196.417.417 0 0 1 .354.412v8.766c-.003 1.584-1.252 2.873-2.8 2.876h-.393l.375 2.07a.417.417 0 0 1-.82.148l-.401-2.218H7.225l-.4 2.218a.417.417 0 1 1-.82-.148l.374-2.07zm.41-.833a.415.415 0 0 1 .179 0h17.064a.424.424 0 0 1 .178 0h.802c1.084-.003 1.967-.914 1.969-2.044v-8.387c-.769-.052-1.625.013-2.427.273-1.586.514-2.557 1.66-2.672 3.69h.992c1.098 0 1.989.888 1.989 1.986v1.295a1.986 1.986 0 0 1-1.99 1.987H8.123c-1.099 0-1.99-.89-1.99-1.987V16.22c0-1.098.89-1.987 1.99-1.987h.969c-.115-2.03-1.087-3.175-2.673-3.689-.802-.26-1.658-.325-2.427-.273v8.387c.002 1.13.885 2.041 1.968 2.044h.83zM23.71 9.978v-1.1c-.002-1.131-.885-2.042-1.967-2.045H9.26c-1.082.005-1.962.915-1.964 2.044v1.116c1.554.718 2.52 2.099 2.629 4.24h11.122c.11-2.156 1.088-3.541 2.662-4.255zM6.966 16.22v1.295c0 .637.517 1.154 1.156 1.154h14.752c.64 0 1.156-.516 1.156-1.154V16.22c0-.637-.518-1.154-1.156-1.154H8.122c-.64 0-1.156.516-1.156 1.154z"/>
</svg>
