<?xml version="1.0" encoding="UTF-8"?>
<svg width="30px" height="30px" viewBox="0 0 30 30" version="1.1" xmlns="http://www.w3.org/2000/svg" xmlns:xlink="http://www.w3.org/1999/xlink">
    <!-- Generator: Sketch 44.1 (41455) - http://www.bohemiancoding.com/sketch -->
    <title>icn/on-site-manager</title>
    <desc>Created with Sketch.</desc>
    <defs></defs>
    <g id="Symbols" stroke="none" stroke-width="1" fill="none" fill-rule="evenodd">
        <g id="icn/on-site-manager" fill-rule="nonzero" fill="#C8242C">
            <path d="M5.5303015,24.879947 L4.46253627,24.8799441 C4.14602545,24.8753162 3.85295964,24.7138118 3.6792858,24.4496246 C3.50691962,24.1874267 3.47387385,23.8572548 3.59059017,23.5660773 C4.01668933,22.6264919 4.29807287,21.6515789 4.43491077,20.6510339 C5.05250508,16.1302231 8.56023812,12.6435465 12.9248027,11.9902925 C12.9170998,11.9547448 12.9130435,11.9178445 12.9130435,11.88 L12.9130529,11.1767604 C12.9176932,10.4057272 13.5859243,9.80391667 14.3895652,9.8 L14.4782609,9.80000713 L14.4782609,9.2852 L13.4347826,9.2852 C13.146634,9.2852 12.9130435,9.05238807 12.9130435,8.7652 C12.9130435,8.47801193 13.146634,8.2452 13.4347826,8.2452 L16.5652174,8.2452 C16.853366,8.2452 17.0869565,8.47801193 17.0869565,8.7652 C17.0869565,9.05238807 16.853366,9.2852 16.5652174,9.2852 L15.5217391,9.2852 L15.5217391,9.80009101 L15.63633,9.80010022 C16.4285177,9.81560394 17.0825466,10.4144409 17.0869565,11.1798795 L17.0869565,11.88 C17.0869565,11.9475158 17.0740463,12.0120264 17.050552,12.0712132 C21.2201296,12.8990741 24.5140452,16.330626 25.0831301,20.7186829 C25.2101058,21.6771362 25.4785963,22.6109189 25.8796289,23.4889082 C25.9078175,23.5506222 25.9235973,23.6171764 25.9261498,23.6848113 C25.9909413,23.9360351 25.9514886,24.2049269 25.813394,24.428388 C25.6540461,24.6862404 25.3818653,24.8535353 25.0367463,24.88 L5.68708664,24.8799474 C5.63517798,24.886951 5.58221012,24.8869509 5.53030169,24.879947 Z M5.6194078,23.8400974 L24.9940989,23.8417401 C24.9648035,23.8441348 24.9392024,23.8598704 24.9249197,23.8829822 C24.9113048,23.9135918 24.9111143,23.9339178 24.9183696,23.9525549 C24.9044263,23.916738 24.8945376,23.8795668 24.888833,23.8417312 C24.8841597,23.80374 24.8830403,23.7841254 24.8830403,23.7644587 L24.8830403,23.7043582 L25.4047794,23.7043582 L24.9299299,23.9198081 C24.91065,23.8773981 24.9026217,23.8595751 24.8946426,23.8417317 C24.4666734,22.879866 24.1844462,21.8799997 24.0484459,20.8534113 C23.4609039,16.3230506 19.64567,12.9331225 15.1269133,12.92 L14.3816585,12.9199974 C9.88568741,12.9340478 6.08385043,16.2895125 5.46883875,20.7914182 C5.32497992,21.8432995 5.03582402,22.8694483 4.60996766,23.8400119 L5.59808334,23.8400956 C5.60519063,23.8399675 5.61230054,23.8399681 5.61940779,23.8400974 Z M15.0018371,10.8399968 C15.001225,10.8399989 15.0006126,10.84 15,10.84 C14.9993856,10.84 14.9987714,10.8399989 14.9981575,10.8399968 L14.3921205,10.8399938 C14.1409538,10.8412198 13.9575754,11.0063709 13.9565217,11.1798795 L13.9565217,11.88 C13.9565217,11.8834065 13.9564889,11.8868054 13.9564234,11.8901963 C14.0969579,11.8838604 14.2381785,11.8804432 14.3800226,11.88 L15.1284333,11.8800022 C15.4372542,11.8808989 15.7431097,11.8958984 16.0453558,11.9244273 C16.0441125,11.9097827 16.0434783,11.8949652 16.0434783,11.88 L16.0434869,11.1828712 C16.0424802,11.0084763 15.8636638,10.8447498 15.626087,10.84 L15.0018371,10.8399968 Z M2.47826087,26.8504933 C2.47826087,26.0473118 3.13052405,25.4 3.94082844,25.4 L26.0591716,25.4 C26.8648959,25.4 27.5217391,26.0517124 27.5217391,26.8504933 L27.5217391,27.0695067 C27.5217391,27.8726882 26.8694759,28.52 26.0591716,28.52 L3.94082844,28.52 C3.1351041,28.52 2.47826087,27.8682876 2.47826087,27.0695067 L2.47826087,26.8504933 Z M3.52173913,26.8504933 L3.52173913,27.0695067 C3.52173913,27.2928605 3.71035199,27.48 3.94082844,27.48 L26.0591716,27.48 C26.2941765,27.48 26.4782609,27.297313 26.4782609,27.0695067 L26.4782609,26.8504933 C26.4782609,26.6271395 26.289648,26.44 26.0591716,26.44 L3.94082844,26.44 C3.70582352,26.44 3.52173913,26.622687 3.52173913,26.8504933 Z M22.7889967,18.4474417 C22.8956995,18.7142137 22.7652144,19.0166864 22.4975502,19.1230334 C22.229886,19.2293805 21.9264016,19.0993303 21.8196989,18.8325583 C21.0864534,16.99934 19.6789644,15.5965426 17.9516299,14.9685096 C17.6809312,14.8700876 17.5415402,14.5715876 17.6402914,14.3017912 C17.7390426,14.0319948 18.0385409,13.8930684 18.3092396,13.9914904 C20.321165,14.7229964 21.9477199,16.3441295 22.7889967,18.4474417 Z M20.1297654,5.4084441 C19.9699293,5.64739902 19.6459975,5.71196943 19.4062434,5.55266615 C19.1664893,5.39336287 19.1017029,5.07051082 19.261539,4.8315559 L20.3050172,3.2715559 C20.4648533,3.03260098 20.7887851,2.96803057 21.0285392,3.12733385 C21.2682933,3.28663713 21.3330797,3.60948918 21.1732436,3.8484441 L20.1297654,5.4084441 Z M23.1154958,9.19266615 C22.8757417,9.35196943 22.5518098,9.28739902 22.3919738,9.0484441 C22.2321377,8.80948918 22.2969241,8.48663713 22.5366782,8.32733385 L24.1018955,7.28733385 C24.3416496,7.12803057 24.6655815,7.19260098 24.8254175,7.4315559 C24.9852536,7.67051082 24.9204672,7.99336287 24.6807131,8.15266615 L23.1154958,9.19266615 Z M4.04347826,13.44 C3.7553297,13.44 3.52173913,13.2071881 3.52173913,12.92 C3.52173913,12.6328119 3.7553297,12.4 4.04347826,12.4 L5.60869565,12.4 C5.89684422,12.4 6.13043478,12.6328119 6.13043478,12.92 C6.13043478,13.2071881 5.89684422,13.44 5.60869565,13.44 L4.04347826,13.44 Z M24.3913043,13.44 C24.1031558,13.44 23.8695652,13.2071881 23.8695652,12.92 C23.8695652,12.6328119 24.1031558,12.4 24.3913043,12.4 L25.9565217,12.4 C26.2446703,12.4 26.4782609,12.6328119 26.4782609,12.92 C26.4782609,13.2071881 26.2446703,13.44 25.9565217,13.44 L24.3913043,13.44 Z M5.31928685,8.15266615 C5.07953276,7.99336287 5.01474639,7.67051082 5.17458246,7.4315559 C5.33441852,7.19260098 5.65835035,7.12803057 5.89810445,7.28733385 L7.46332184,8.32733385 C7.70307594,8.48663713 7.76786231,8.80948918 7.60802624,9.0484441 C7.44819017,9.28739902 7.12425834,9.35196943 6.88450425,9.19266615 L5.31928685,8.15266615 Z M9.3484955,3.8484441 C9.18865943,3.60948918 9.2534458,3.28663713 9.4931999,3.12733385 C9.732954,2.96803057 10.0568858,3.03260098 10.2167219,3.2715559 L11.2602002,4.8315559 C11.4200362,5.07051082 11.3552499,5.39336287 11.1154958,5.55266615 C10.8757417,5.71196943 10.5518098,5.64739902 10.3919738,5.4084441 L9.3484955,3.8484441 Z M14.4782609,2 C14.4782609,1.71281193 14.7118514,1.48 15,1.48 C15.2881486,1.48 15.5217391,1.71281193 15.5217391,2 L15.5217391,3.56 C15.5217391,3.84718807 15.2881486,4.08 15,4.08 C14.7118514,4.08 14.4782609,3.84718807 14.4782609,3.56 L14.4782609,2 Z" id="Combined-Shape"></path>
        </g>
    </g>
</svg>