<svg xmlns="http://www.w3.org/2000/svg" width="20" height="20" viewBox="0 0 20 20">
    <path fill="#FFF" fill-rule="nonzero" d="M10 20C4.477 20 0 15.523 0 10S4.477 0 10 0s10 4.477 10 10-4.477 10-10 10zm0-1.333a8.667 8.667 0 1 0 0-17.334 8.667 8.667 0 0 0 0 17.334zm5.333-11.728a4.111 4.111 0 0 1-1.027 1.013v.258c.003 2.073-1.16 3.982-3.03 4.976a5.964 5.964 0 0 1-5.943-.206 4.178 4.178 0 0 0 3.042-.82c-.88-.011-1.653-.568-1.922-1.383.126.024.255.036.384.037.182 0 .363-.024.539-.071-.955-.189-1.642-1.005-1.643-1.953v-.026c.284.154.602.24.927.25a1.961 1.961 0 0 1-.634-2.659 5.865 5.865 0 0 0 4.23 2.08 1.975 1.975 0 0 1 1.042-2.204 2.092 2.092 0 0 1 2.458.405c.459-.088.899-.251 1.3-.483-.152.46-.472.852-.9 1.1a4.179 4.179 0 0 0 1.177-.314z"/>
</svg>
