<svg xmlns="http://www.w3.org/2000/svg" width="30" height="30" viewBox="0 0 30 30">
    <path fill="#C8242C" fill-rule="nonzero" d="M3.772 11.339a.474.474 0 1 1-.653-.688c3.175-3.014 7.478-4.706 11.964-4.706 4.486 0 8.79 1.692 11.965 4.706a.474.474 0 0 1-.653.688c-2.998-2.846-7.067-4.446-11.312-4.446-4.244 0-8.314 1.6-11.311 4.446zm3.491 3.313a.474.474 0 1 1-.653-.688c4.683-4.443 12.264-4.443 16.946 0a.474.474 0 0 1-.652.688c-4.317-4.096-11.324-4.096-15.64 0zm3.492 3.32a.474.474 0 0 1-.653-.688c1.323-1.257 3.114-1.962 4.981-1.962s3.659.705 4.982 1.962a.474.474 0 1 1-.653.687c-1.146-1.088-2.703-1.7-4.329-1.7-1.625 0-3.183.612-4.328 1.7zm4.328 5.537c-.855 0-1.548-.658-1.548-1.469s.693-1.469 1.548-1.469c.855 0 1.548.658 1.548 1.469s-.693 1.469-1.548 1.469z"/>
</svg>
